<mxfile host="app.diagrams.net" modified="2022-03-23T03:08:07.788Z" agent="5.0 (X11; Linux x86_64) AppleWebKit/537.36 (KHTML, like Gecko) Chrome/99.0.4844.51 Safari/537.36" etag="bMT_VyaNm7pcLX4DaQ3S" version="17.1.5" type="github">
  <diagram id="C5RBs43oDa-KdzZeNtuy" name="Page-1">
    <mxGraphModel dx="723" dy="408" grid="1" gridSize="10" guides="1" tooltips="1" connect="1" arrows="1" fold="1" page="1" pageScale="1" pageWidth="827" pageHeight="1169" math="0" shadow="0">
      <root>
        <mxCell id="WIyWlLk6GJQsqaUBKTNV-0" />
        <mxCell id="WIyWlLk6GJQsqaUBKTNV-1" parent="WIyWlLk6GJQsqaUBKTNV-0" />
        <mxCell id="5KmD1Hv4bj52pzsgGMsD-20" style="edgeStyle=none;rounded=0;orthogonalLoop=1;jettySize=auto;html=1;exitX=0.5;exitY=1;exitDx=0;exitDy=0;" edge="1" parent="WIyWlLk6GJQsqaUBKTNV-1" source="5KmD1Hv4bj52pzsgGMsD-3">
          <mxGeometry relative="1" as="geometry">
            <mxPoint x="110" y="210" as="targetPoint" />
          </mxGeometry>
        </mxCell>
        <mxCell id="5KmD1Hv4bj52pzsgGMsD-3" value="" style="html=1;dashed=0;whitespace=wrap;" vertex="1" parent="WIyWlLk6GJQsqaUBKTNV-1">
          <mxGeometry x="110" y="180" width="100" height="50" as="geometry" />
        </mxCell>
        <mxCell id="5KmD1Hv4bj52pzsgGMsD-22" style="edgeStyle=none;rounded=0;orthogonalLoop=1;jettySize=auto;html=1;exitX=1;exitY=0.5;exitDx=0;exitDy=0;shape=link;" edge="1" parent="WIyWlLk6GJQsqaUBKTNV-1" source="5KmD1Hv4bj52pzsgGMsD-3" target="5KmD1Hv4bj52pzsgGMsD-21">
          <mxGeometry relative="1" as="geometry">
            <mxPoint x="270" y="205" as="sourcePoint" />
          </mxGeometry>
        </mxCell>
        <mxCell id="5KmD1Hv4bj52pzsgGMsD-4" value="Mahasiswa" style="text;html=1;align=center;verticalAlign=middle;resizable=0;points=[];autosize=1;strokeColor=none;fillColor=none;" vertex="1" parent="WIyWlLk6GJQsqaUBKTNV-1">
          <mxGeometry x="120" y="195" width="80" height="20" as="geometry" />
        </mxCell>
        <mxCell id="5KmD1Hv4bj52pzsgGMsD-7" value="no_mhs" style="ellipse;whiteSpace=wrap;html=1;align=center;fontStyle=4;" vertex="1" parent="WIyWlLk6GJQsqaUBKTNV-1">
          <mxGeometry x="110" y="110" width="100" height="40" as="geometry" />
        </mxCell>
        <mxCell id="5KmD1Hv4bj52pzsgGMsD-8" value="nama" style="ellipse;whiteSpace=wrap;html=1;align=center;" vertex="1" parent="WIyWlLk6GJQsqaUBKTNV-1">
          <mxGeometry x="180" y="260" width="100" height="40" as="geometry" />
        </mxCell>
        <mxCell id="5KmD1Hv4bj52pzsgGMsD-9" value="alamat" style="ellipse;whiteSpace=wrap;html=1;align=center;" vertex="1" parent="WIyWlLk6GJQsqaUBKTNV-1">
          <mxGeometry x="20" y="255" width="100" height="40" as="geometry" />
        </mxCell>
        <mxCell id="5KmD1Hv4bj52pzsgGMsD-17" value="" style="endArrow=none;html=1;rounded=0;exitX=0.5;exitY=0;exitDx=0;exitDy=0;entryX=0.5;entryY=1;entryDx=0;entryDy=0;" edge="1" parent="WIyWlLk6GJQsqaUBKTNV-1" source="5KmD1Hv4bj52pzsgGMsD-9" target="5KmD1Hv4bj52pzsgGMsD-3">
          <mxGeometry width="50" height="50" relative="1" as="geometry">
            <mxPoint x="230" y="370" as="sourcePoint" />
            <mxPoint x="280" y="320" as="targetPoint" />
          </mxGeometry>
        </mxCell>
        <mxCell id="5KmD1Hv4bj52pzsgGMsD-18" value="" style="endArrow=none;html=1;rounded=0;entryX=0.5;entryY=0;entryDx=0;entryDy=0;exitX=0.5;exitY=1;exitDx=0;exitDy=0;" edge="1" parent="WIyWlLk6GJQsqaUBKTNV-1" source="5KmD1Hv4bj52pzsgGMsD-3" target="5KmD1Hv4bj52pzsgGMsD-8">
          <mxGeometry width="50" height="50" relative="1" as="geometry">
            <mxPoint x="230" y="370" as="sourcePoint" />
            <mxPoint x="280" y="320" as="targetPoint" />
          </mxGeometry>
        </mxCell>
        <mxCell id="5KmD1Hv4bj52pzsgGMsD-19" value="" style="endArrow=none;html=1;rounded=0;entryX=0.5;entryY=1;entryDx=0;entryDy=0;exitX=0.5;exitY=0;exitDx=0;exitDy=0;" edge="1" parent="WIyWlLk6GJQsqaUBKTNV-1" source="5KmD1Hv4bj52pzsgGMsD-3" target="5KmD1Hv4bj52pzsgGMsD-7">
          <mxGeometry width="50" height="50" relative="1" as="geometry">
            <mxPoint x="230" y="370" as="sourcePoint" />
            <mxPoint x="280" y="320" as="targetPoint" />
          </mxGeometry>
        </mxCell>
        <mxCell id="5KmD1Hv4bj52pzsgGMsD-30" style="edgeStyle=none;rounded=0;orthogonalLoop=1;jettySize=auto;html=1;exitX=1;exitY=0.5;exitDx=0;exitDy=0;endArrow=none;endFill=0;" edge="1" parent="WIyWlLk6GJQsqaUBKTNV-1" source="5KmD1Hv4bj52pzsgGMsD-21" target="5KmD1Hv4bj52pzsgGMsD-2">
          <mxGeometry relative="1" as="geometry" />
        </mxCell>
        <mxCell id="5KmD1Hv4bj52pzsgGMsD-21" value="Meminjam" style="shape=rhombus;perimeter=rhombusPerimeter;whiteSpace=wrap;html=1;align=center;" vertex="1" parent="WIyWlLk6GJQsqaUBKTNV-1">
          <mxGeometry x="375" y="175" width="120" height="60" as="geometry" />
        </mxCell>
        <mxCell id="5KmD1Hv4bj52pzsgGMsD-23" value="" style="group" vertex="1" connectable="0" parent="WIyWlLk6GJQsqaUBKTNV-1">
          <mxGeometry x="640" y="180" width="100" height="50" as="geometry" />
        </mxCell>
        <mxCell id="5KmD1Hv4bj52pzsgGMsD-2" value="" style="html=1;dashed=0;whitespace=wrap;" vertex="1" parent="5KmD1Hv4bj52pzsgGMsD-23">
          <mxGeometry width="100" height="50" as="geometry" />
        </mxCell>
        <mxCell id="5KmD1Hv4bj52pzsgGMsD-5" value="Buku" style="text;html=1;align=center;verticalAlign=middle;resizable=0;points=[];autosize=1;strokeColor=none;fillColor=none;" vertex="1" parent="5KmD1Hv4bj52pzsgGMsD-23">
          <mxGeometry x="30" y="15" width="40" height="20" as="geometry" />
        </mxCell>
        <mxCell id="5KmD1Hv4bj52pzsgGMsD-34" value="" style="edgeStyle=none;rounded=0;orthogonalLoop=1;jettySize=auto;html=1;endArrow=none;endFill=0;" edge="1" parent="WIyWlLk6GJQsqaUBKTNV-1" source="5KmD1Hv4bj52pzsgGMsD-31" target="5KmD1Hv4bj52pzsgGMsD-21">
          <mxGeometry relative="1" as="geometry" />
        </mxCell>
        <mxCell id="5KmD1Hv4bj52pzsgGMsD-31" value="Denda" style="ellipse;whiteSpace=wrap;html=1;align=center;dashed=1;" vertex="1" parent="WIyWlLk6GJQsqaUBKTNV-1">
          <mxGeometry x="385" y="80" width="100" height="40" as="geometry" />
        </mxCell>
        <mxCell id="5KmD1Hv4bj52pzsgGMsD-36" style="edgeStyle=none;rounded=0;orthogonalLoop=1;jettySize=auto;html=1;exitX=0.5;exitY=0;exitDx=0;exitDy=0;endArrow=none;endFill=0;entryX=0.5;entryY=1;entryDx=0;entryDy=0;" edge="1" parent="WIyWlLk6GJQsqaUBKTNV-1" source="5KmD1Hv4bj52pzsgGMsD-32" target="5KmD1Hv4bj52pzsgGMsD-21">
          <mxGeometry relative="1" as="geometry">
            <mxPoint x="440" y="230" as="targetPoint" />
          </mxGeometry>
        </mxCell>
        <mxCell id="5KmD1Hv4bj52pzsgGMsD-32" value="Tgl_pinjam" style="ellipse;whiteSpace=wrap;html=1;align=center;" vertex="1" parent="WIyWlLk6GJQsqaUBKTNV-1">
          <mxGeometry x="330" y="270" width="100" height="40" as="geometry" />
        </mxCell>
        <mxCell id="5KmD1Hv4bj52pzsgGMsD-35" style="edgeStyle=none;rounded=0;orthogonalLoop=1;jettySize=auto;html=1;exitX=0.5;exitY=0;exitDx=0;exitDy=0;entryX=0.5;entryY=1;entryDx=0;entryDy=0;endArrow=none;endFill=0;" edge="1" parent="WIyWlLk6GJQsqaUBKTNV-1" source="5KmD1Hv4bj52pzsgGMsD-33" target="5KmD1Hv4bj52pzsgGMsD-21">
          <mxGeometry relative="1" as="geometry" />
        </mxCell>
        <mxCell id="5KmD1Hv4bj52pzsgGMsD-33" value="Tgl_kembali" style="ellipse;whiteSpace=wrap;html=1;align=center;" vertex="1" parent="WIyWlLk6GJQsqaUBKTNV-1">
          <mxGeometry x="480" y="270" width="100" height="40" as="geometry" />
        </mxCell>
        <mxCell id="5KmD1Hv4bj52pzsgGMsD-37" style="edgeStyle=none;rounded=0;orthogonalLoop=1;jettySize=auto;html=1;exitX=1;exitY=1;exitDx=0;exitDy=0;entryX=0.718;entryY=1.051;entryDx=0;entryDy=0;entryPerimeter=0;endArrow=none;endFill=0;" edge="1" parent="WIyWlLk6GJQsqaUBKTNV-1" source="5KmD1Hv4bj52pzsgGMsD-33" target="5KmD1Hv4bj52pzsgGMsD-33">
          <mxGeometry relative="1" as="geometry" />
        </mxCell>
        <mxCell id="5KmD1Hv4bj52pzsgGMsD-38" value="" style="group;rotation=90;" vertex="1" connectable="0" parent="WIyWlLk6GJQsqaUBKTNV-1">
          <mxGeometry x="640" y="490" width="100" height="50" as="geometry" />
        </mxCell>
        <mxCell id="5KmD1Hv4bj52pzsgGMsD-1" value="" style="html=1;dashed=0;whitespace=wrap;" vertex="1" parent="5KmD1Hv4bj52pzsgGMsD-38">
          <mxGeometry width="100" height="50" as="geometry" />
        </mxCell>
        <mxCell id="5KmD1Hv4bj52pzsgGMsD-6" value="Perpustakaan" style="text;html=1;align=center;verticalAlign=middle;resizable=0;points=[];autosize=1;strokeColor=none;fillColor=none;" vertex="1" parent="5KmD1Hv4bj52pzsgGMsD-38">
          <mxGeometry x="5" y="15" width="90" height="20" as="geometry" />
        </mxCell>
        <mxCell id="5KmD1Hv4bj52pzsgGMsD-44" style="edgeStyle=none;rounded=0;orthogonalLoop=1;jettySize=auto;html=1;exitX=0.5;exitY=0;exitDx=0;exitDy=0;entryX=0.5;entryY=1;entryDx=0;entryDy=0;endArrow=none;endFill=0;" edge="1" parent="WIyWlLk6GJQsqaUBKTNV-1" source="5KmD1Hv4bj52pzsgGMsD-39" target="5KmD1Hv4bj52pzsgGMsD-2">
          <mxGeometry relative="1" as="geometry" />
        </mxCell>
        <mxCell id="5KmD1Hv4bj52pzsgGMsD-39" value="Pengarang" style="ellipse;shape=doubleEllipse;margin=3;whiteSpace=wrap;html=1;align=center;" vertex="1" parent="WIyWlLk6GJQsqaUBKTNV-1">
          <mxGeometry x="590" y="250" width="100" height="40" as="geometry" />
        </mxCell>
        <mxCell id="5KmD1Hv4bj52pzsgGMsD-45" style="edgeStyle=none;rounded=0;orthogonalLoop=1;jettySize=auto;html=1;exitX=0.5;exitY=0;exitDx=0;exitDy=0;entryX=1;entryY=1;entryDx=0;entryDy=0;endArrow=none;endFill=0;" edge="1" parent="WIyWlLk6GJQsqaUBKTNV-1" source="5KmD1Hv4bj52pzsgGMsD-40" target="5KmD1Hv4bj52pzsgGMsD-2">
          <mxGeometry relative="1" as="geometry" />
        </mxCell>
        <mxCell id="5KmD1Hv4bj52pzsgGMsD-40" value="Penerbit" style="ellipse;whiteSpace=wrap;html=1;align=center;" vertex="1" parent="WIyWlLk6GJQsqaUBKTNV-1">
          <mxGeometry x="727" y="250" width="100" height="40" as="geometry" />
        </mxCell>
        <mxCell id="5KmD1Hv4bj52pzsgGMsD-49" style="edgeStyle=none;rounded=0;orthogonalLoop=1;jettySize=auto;html=1;exitX=0.5;exitY=1;exitDx=0;exitDy=0;entryX=0.25;entryY=0;entryDx=0;entryDy=0;endArrow=none;endFill=0;" edge="1" parent="WIyWlLk6GJQsqaUBKTNV-1" source="5KmD1Hv4bj52pzsgGMsD-41" target="5KmD1Hv4bj52pzsgGMsD-2">
          <mxGeometry relative="1" as="geometry" />
        </mxCell>
        <mxCell id="5KmD1Hv4bj52pzsgGMsD-41" value="No_buku" style="ellipse;whiteSpace=wrap;html=1;align=center;fontStyle=4;" vertex="1" parent="WIyWlLk6GJQsqaUBKTNV-1">
          <mxGeometry x="540" y="130" width="100" height="40" as="geometry" />
        </mxCell>
        <mxCell id="5KmD1Hv4bj52pzsgGMsD-50" style="edgeStyle=none;rounded=0;orthogonalLoop=1;jettySize=auto;html=1;exitX=0.5;exitY=1;exitDx=0;exitDy=0;entryX=0.5;entryY=0;entryDx=0;entryDy=0;endArrow=none;endFill=0;" edge="1" parent="WIyWlLk6GJQsqaUBKTNV-1" source="5KmD1Hv4bj52pzsgGMsD-42" target="5KmD1Hv4bj52pzsgGMsD-2">
          <mxGeometry relative="1" as="geometry" />
        </mxCell>
        <mxCell id="5KmD1Hv4bj52pzsgGMsD-42" value="Judul" style="ellipse;whiteSpace=wrap;html=1;align=center;" vertex="1" parent="WIyWlLk6GJQsqaUBKTNV-1">
          <mxGeometry x="610" y="60" width="100" height="40" as="geometry" />
        </mxCell>
        <mxCell id="5KmD1Hv4bj52pzsgGMsD-46" style="edgeStyle=none;rounded=0;orthogonalLoop=1;jettySize=auto;html=1;exitX=0.5;exitY=1;exitDx=0;exitDy=0;endArrow=none;endFill=0;" edge="1" parent="WIyWlLk6GJQsqaUBKTNV-1" source="5KmD1Hv4bj52pzsgGMsD-43">
          <mxGeometry relative="1" as="geometry">
            <mxPoint x="720" y="180" as="targetPoint" />
          </mxGeometry>
        </mxCell>
        <mxCell id="5KmD1Hv4bj52pzsgGMsD-43" value="Jumlah" style="ellipse;whiteSpace=wrap;html=1;align=center;" vertex="1" parent="WIyWlLk6GJQsqaUBKTNV-1">
          <mxGeometry x="710" y="110" width="100" height="40" as="geometry" />
        </mxCell>
        <mxCell id="5KmD1Hv4bj52pzsgGMsD-51" value="Milik" style="shape=rhombus;perimeter=rhombusPerimeter;whiteSpace=wrap;html=1;align=center;" vertex="1" parent="WIyWlLk6GJQsqaUBKTNV-1">
          <mxGeometry x="630" y="360" width="120" height="60" as="geometry" />
        </mxCell>
        <mxCell id="5KmD1Hv4bj52pzsgGMsD-52" style="edgeStyle=none;shape=link;rounded=0;orthogonalLoop=1;jettySize=auto;html=1;exitX=0.5;exitY=1;exitDx=0;exitDy=0;endArrow=none;endFill=0;" edge="1" parent="WIyWlLk6GJQsqaUBKTNV-1" source="5KmD1Hv4bj52pzsgGMsD-2" target="5KmD1Hv4bj52pzsgGMsD-51">
          <mxGeometry relative="1" as="geometry" />
        </mxCell>
        <mxCell id="5KmD1Hv4bj52pzsgGMsD-53" value="" style="edgeStyle=none;rounded=0;orthogonalLoop=1;jettySize=auto;html=1;endArrow=none;endFill=0;" edge="1" parent="WIyWlLk6GJQsqaUBKTNV-1" source="5KmD1Hv4bj52pzsgGMsD-1" target="5KmD1Hv4bj52pzsgGMsD-51">
          <mxGeometry relative="1" as="geometry" />
        </mxCell>
        <mxCell id="5KmD1Hv4bj52pzsgGMsD-54" value="Jurusan" style="ellipse;whiteSpace=wrap;html=1;align=center;fontStyle=4;" vertex="1" parent="WIyWlLk6GJQsqaUBKTNV-1">
          <mxGeometry x="530" y="440" width="100" height="40" as="geometry" />
        </mxCell>
        <mxCell id="5KmD1Hv4bj52pzsgGMsD-55" style="edgeStyle=none;rounded=0;orthogonalLoop=1;jettySize=auto;html=1;exitX=0;exitY=0;exitDx=0;exitDy=0;entryX=0.5;entryY=1;entryDx=0;entryDy=0;endArrow=none;endFill=0;" edge="1" parent="WIyWlLk6GJQsqaUBKTNV-1" source="5KmD1Hv4bj52pzsgGMsD-1" target="5KmD1Hv4bj52pzsgGMsD-54">
          <mxGeometry relative="1" as="geometry" />
        </mxCell>
        <mxCell id="5KmD1Hv4bj52pzsgGMsD-61" style="edgeStyle=none;shape=link;rounded=0;orthogonalLoop=1;jettySize=auto;html=1;exitX=0.5;exitY=0;exitDx=0;exitDy=0;endArrow=none;endFill=0;" edge="1" parent="WIyWlLk6GJQsqaUBKTNV-1" source="5KmD1Hv4bj52pzsgGMsD-56">
          <mxGeometry relative="1" as="geometry">
            <mxPoint x="159.57142857142867" y="230" as="targetPoint" />
          </mxGeometry>
        </mxCell>
        <mxCell id="5KmD1Hv4bj52pzsgGMsD-62" style="edgeStyle=none;shape=link;rounded=0;orthogonalLoop=1;jettySize=auto;html=1;exitX=1;exitY=0.5;exitDx=0;exitDy=0;entryX=0;entryY=0.5;entryDx=0;entryDy=0;endArrow=none;endFill=0;" edge="1" parent="WIyWlLk6GJQsqaUBKTNV-1" source="5KmD1Hv4bj52pzsgGMsD-56" target="5KmD1Hv4bj52pzsgGMsD-1">
          <mxGeometry relative="1" as="geometry" />
        </mxCell>
        <mxCell id="5KmD1Hv4bj52pzsgGMsD-56" value="Terdaftar" style="shape=rhombus;perimeter=rhombusPerimeter;whiteSpace=wrap;html=1;align=center;" vertex="1" parent="WIyWlLk6GJQsqaUBKTNV-1">
          <mxGeometry x="100" y="480" width="120" height="60" as="geometry" />
        </mxCell>
      </root>
    </mxGraphModel>
  </diagram>
</mxfile>
